<svg width="150" height="46" viewBox="0 0 150 46" fill="none" xmlns="http://www.w3.org/2000/svg">
<g clip-path="url(#clip0_1800_1053)">
<path d="M24.71 28.8311C25.3873 28.9063 26.3748 28.9931 26.9319 28.7998L29.1097 25.3885C31.6259 28.3416 31.9291 32.8582 29.5316 36.1053C29.4945 36.1826 29.4573 36.2213 29.383 36.2986C30.0145 35.4482 30.2745 34.3658 30.163 33.2835C30.0145 32.1624 29.4945 31.1574 28.6402 30.4616C27.823 29.7658 26.7459 29.4566 25.6688 29.5725C25.5303 29.5885 25.3536 29.6112 25.1466 29.6377C24.8538 29.6752 24.5004 29.7205 24.1088 29.7658C20.7659 30.2297 17.3116 29.7272 14.1916 28.3356C11.0345 26.9826 8.32304 24.7406 6.28018 21.9188L0.96875 14.5742C0.96875 14.5742 4.28853 15.0424 8.78749 16.143L9.10397 16.8974C10.4646 20.1409 12.6245 22.9528 15.365 25.0484C18.1054 27.144 21.3292 28.4489 24.71 28.8311Z" fill="url(#paint0_linear_1800_1053)"/>
<path d="M27.3964 29.0091C27.0495 28.9668 26.5016 28.9034 25.8244 28.8282C22.4436 28.446 19.2198 27.1411 16.4793 25.0455C13.7389 22.9499 11.579 20.138 10.2183 16.8945L6.68913 8.48225C6.68913 8.48225 23.7272 15.309 30.8295 24.4373L27.3964 29.0091Z" fill="url(#paint1_linear_1800_1053)"/>
<path d="M38.4447 10.0887C36.699 13.1038 35.8076 16.5055 35.8076 19.9845C35.8076 20.2551 35.8076 20.487 35.8076 20.7576C35.919 23.3089 35.5104 25.8601 34.6561 28.2568C33.8019 30.6921 32.5019 32.8568 30.8304 34.7509C29.9761 35.6786 29.2704 36.4517 28.899 36.761C25.5561 39.8534 22.2504 41.3996 17.719 42.5206L4.12471 45.8836C4.12471 45.8836 11.4047 41.8635 20.839 33.0887C20.9504 33.0114 22.9561 31.6971 23.2533 31.5038C25.1847 30.3442 27.859 31.1559 28.9733 33.2047C29.4933 34.1324 29.6419 35.2534 29.3819 36.2971C30.0133 35.5626 30.3476 34.5963 30.3104 33.5912C30.2361 30.6534 28.0076 28.0248 25.519 26.5946C26.299 25.0097 26.9304 23.3475 27.3761 21.7626C28.4904 17.7811 30.7561 14.2248 33.839 11.6349L41.0447 5.52734L38.4447 10.0887Z" fill="url(#paint2_linear_1800_1053)"/>
<path d="M21.3226 12.523C24.1826 -0.81315 40.7855 -4.21483 48.6969 6.49273C54.3798 14.0692 52.3369 25.6272 44.2769 30.3818C41.7883 31.8894 38.854 32.6238 36.0312 32.4305C38.854 32.2759 41.6026 31.3095 43.8683 29.7247C53.8598 22.8053 52.374 7.03391 41.1569 2.47256C33.1341 -0.851806 23.9226 3.98013 21.3226 12.523Z" fill="url(#paint3_linear_1800_1053)"/>
</g>
<path d="M66.235 21.7051C66.8493 21.7051 67.3421 21.5624 67.7135 21.2768C68.0991 20.9782 68.292 20.4655 68.292 19.7385C68.292 19.1544 68.1134 18.765 67.7563 18.5702C67.3992 18.3755 66.9135 18.2782 66.2993 18.2782H62.4212V21.7051H66.235ZM62.4212 23.7497V27.7218H66.7707C67.6706 27.7218 68.3277 27.5401 68.7419 27.1766C69.1704 26.8132 69.3847 26.3134 69.3847 25.6773C69.3847 24.9893 69.1776 24.4961 68.7633 24.1975C68.3634 23.8989 67.7349 23.7497 66.8778 23.7497H62.4212ZM69.3419 22.5814C70.1132 22.9318 70.6988 23.3732 71.0988 23.9054C71.513 24.4376 71.7202 25.1062 71.7202 25.911C71.7202 26.586 71.5916 27.1701 71.3345 27.6634C71.0774 28.1437 70.7203 28.5396 70.2632 28.8512C69.8204 29.1627 69.299 29.3964 68.6991 29.5522C68.1134 29.6949 67.4778 29.7663 66.7921 29.7663H60V16.2337H66.4707C67.0992 16.2337 67.6777 16.3051 68.2063 16.4478C68.7348 16.5777 69.1919 16.7853 69.5775 17.0709C69.9632 17.3565 70.2632 17.72 70.4774 18.1613C70.6917 18.6027 70.7988 19.1284 70.7988 19.7385C70.7988 20.8679 70.3132 21.7765 69.3419 22.4645V22.5814Z" fill="white"/>
<path d="M84.6944 29.7663H73.8099V16.2337H84.7587L84.0516 18.2782H76.2096V21.5688H83.3446V23.6328H76.2096V27.7218H84.6944V29.7663Z" fill="white"/>
<path d="M93.2052 18.2782V29.7663H90.784V18.2782H86.0702V16.2337H98.1546L97.4476 18.2782H93.2052Z" fill="white"/>
<path d="M102.114 16.2337V27.7218H109.356L108.692 29.7663H99.693V16.2337H102.114Z" fill="white"/>
<path d="M114.579 24.0028H119.057L117.107 19.4659L116.764 17.9471L116.421 19.4659L114.579 24.0028ZM113.85 25.911L112.286 29.7663H109.736L115.286 16.2337H118.178L124.006 29.7663H121.499L119.85 25.911H113.85Z" fill="white"/>
<path d="M127.695 23.0097C127.695 23.7756 127.752 24.4636 127.867 25.0737C127.995 25.6838 128.217 26.2031 128.531 26.6314C128.859 27.0598 129.309 27.3908 129.881 27.6245C130.466 27.8452 131.223 27.9555 132.152 27.9555C132.809 27.9555 133.388 27.8906 133.887 27.7608C134.387 27.618 134.866 27.3259 135.323 26.8846L136.93 28.2476C136.287 28.8707 135.559 29.3185 134.744 29.5911C133.93 29.8637 133.066 30 132.152 30C130.909 30 129.845 29.8312 128.959 29.4937C128.088 29.1562 127.374 28.6824 126.817 28.0723C126.26 27.4622 125.845 26.7353 125.574 25.8915C125.317 25.0348 125.188 24.0872 125.188 23.0487V22.3282C125.188 21.3417 125.338 20.459 125.638 19.6801C125.953 18.8883 126.403 18.2197 126.988 17.6745C127.588 17.1293 128.317 16.714 129.174 16.4284C130.045 16.1428 131.038 16 132.152 16C133.023 16 133.873 16.1298 134.702 16.3894C135.53 16.649 136.259 17.0709 136.887 17.6551L135.259 19.1544C134.802 18.739 134.33 18.4534 133.845 18.2976C133.359 18.1419 132.795 18.064 132.152 18.064C130.624 18.064 129.495 18.4339 128.767 19.1739C128.052 19.9008 127.695 20.9652 127.695 22.3672V23.0097Z" fill="white"/>
<path d="M149.936 29.7663H139.051V16.2337H150L149.293 18.2782H141.451V21.5688H148.586V23.6328H141.451V27.7218H149.936V29.7663Z" fill="white"/>
<defs>
<linearGradient id="paint0_linear_1800_1053" x1="52.002" y1="-2.09163e-06" x2="-0.680616" y2="44.0311" gradientUnits="userSpaceOnUse">
<stop offset="0.35243" stop-color="#D07EEE"/>
<stop offset="1" stop-color="#4F5BFF"/>
</linearGradient>
<linearGradient id="paint1_linear_1800_1053" x1="52.002" y1="-2.09163e-06" x2="-0.680616" y2="44.0311" gradientUnits="userSpaceOnUse">
<stop offset="0.35243" stop-color="#D07EEE"/>
<stop offset="1" stop-color="#4F5BFF"/>
</linearGradient>
<linearGradient id="paint2_linear_1800_1053" x1="52.002" y1="-2.09163e-06" x2="-0.680616" y2="44.0311" gradientUnits="userSpaceOnUse">
<stop offset="0.35243" stop-color="#D07EEE"/>
<stop offset="1" stop-color="#4F5BFF"/>
</linearGradient>
<linearGradient id="paint3_linear_1800_1053" x1="52.002" y1="-2.09163e-06" x2="-0.680616" y2="44.0311" gradientUnits="userSpaceOnUse">
<stop offset="0.35243" stop-color="#D07EEE"/>
<stop offset="1" stop-color="#4F5BFF"/>
</linearGradient>
<clipPath id="clip0_1800_1053">
<rect width="52" height="46" fill="white"/>
</clipPath>
</defs>
</svg>
